<svg id="Group_1849" data-name="Group 1849" xmlns="http://www.w3.org/2000/svg" width="25.656" height="26.874" viewBox="0 0 25.656 26.874">
  <path id="Path_81" data-name="Path 81" d="M3261.374,1370.682c5.444.282,9.5,2.694,12.05,7.531a1.311,1.311,0,0,1-.286,1.706,1.28,1.28,0,0,1-1.625.02,2.376,2.376,0,0,1-.492-.665,10.547,10.547,0,0,0-9.883-5.91,10.783,10.783,0,1,0,9.808,15.765c.039-.074.075-.149.115-.224a1.323,1.323,0,1,1,2.354,1.18,13.128,13.128,0,0,1-10.691,7.391,13.405,13.405,0,0,1-3.445-26.578C3259.98,1370.786,3260.693,1370.75,3261.374,1370.682Z" transform="translate(-3247.96 -1370.682)" fill="#fe5b3d"/>
  <path id="Path_82" data-name="Path 82" d="M3343.646,1472.729h-.441q-3.352,0-6.7,0a1.323,1.323,0,0,1-1.439-1.122,1.278,1.278,0,0,1,1.221-1.49c.641-.036,1.284-.018,1.926-.019q2.534,0,5.068,0c.121,0,.241-.015.436-.029-.118-.141-.187-.236-.268-.319-.521-.526-1.053-1.041-1.565-1.574a1.307,1.307,0,1,1,1.845-1.853c1.136,1.115,2.27,2.233,3.372,3.38a2.431,2.431,0,0,1,.063,3.321c-1.131,1.215-2.323,2.376-3.516,3.532a1.3,1.3,0,0,1-1.788-1.874c.6-.621,1.229-1.214,1.846-1.819Z" transform="translate(-3327.749 -1457.939)" fill="#fe5b3d"/>
</svg>
