<svg id="email_3_" data-name="email (3)" xmlns="http://www.w3.org/2000/svg" width="40.697" height="31" viewBox="0 0 40.697 31">
  <g id="Group_858" data-name="Group 858" transform="translate(0 0)">
    <path id="Path_1275" data-name="Path 1275" d="M37.121,61H3.577A3.583,3.583,0,0,0,0,64.577V88.423A3.583,3.583,0,0,0,3.577,92H37.121A3.583,3.583,0,0,0,40.7,88.423V64.577A3.583,3.583,0,0,0,37.121,61Zm-.494,2.385-16.2,16.2L4.082,63.385ZM2.385,87.929V65.059L13.869,76.445Zm1.686,1.686L15.562,78.124l4.027,3.992a1.192,1.192,0,0,0,1.683,0L25.2,78.186,36.627,89.615Zm34.242-1.686L26.884,76.5,38.313,65.071Z" transform="translate(0 -61)" fill="#fff"/>
  </g>
</svg>
