<svg id="Group_1456" data-name="Group 1456" xmlns="http://www.w3.org/2000/svg" xmlns:xlink="http://www.w3.org/1999/xlink" width="58.775" height="66.988" viewBox="0 0 58.775 66.988">
  <defs>
    <clipPath id="clip-path">
      <rect id="Rectangle_163" data-name="Rectangle 163" width="58.775" height="66.988" fill="#fe5b3d"/>
    </clipPath>
  </defs>
  <g id="Group_1455" data-name="Group 1455" clip-path="url(#clip-path)">
    <path id="Path_14156" data-name="Path 14156" d="M24.239,42.375A13.761,13.761,0,1,1,3.611,24.166a13.932,13.932,0,0,1,20.708.51l12.152-7.529a12.637,12.637,0,0,1-1.134-6.782A11.743,11.743,0,1,1,54.3,21a11.64,11.64,0,0,1-14.66-.057,1.227,1.227,0,0,0-1.708-.1c-3.586,2.27-7.2,4.492-10.826,6.7a.979.979,0,0,0-.511,1.41,13.094,13.094,0,0,1-.007,9.1.928.928,0,0,0,.454,1.341q5.564,3.4,11.089,6.873c.613.387.958.2,1.441-.183a11.757,11.757,0,1,1,8.955,20.774c-6.172,1-12.465-3.867-13.178-10.162a12.539,12.539,0,0,1,.845-6.236.978.978,0,0,0-.217-.9c-3.829-2.407-7.684-4.773-11.535-7.144a.567.567,0,0,0-.2-.036" transform="translate(0 0)" fill="#fe5b3d"/>
  </g>
</svg>
