<svg id="Group_1450" data-name="Group 1450" xmlns="http://www.w3.org/2000/svg" xmlns:xlink="http://www.w3.org/1999/xlink" width="87.206" height="87.221" viewBox="0 0 87.206 87.221">
  <defs>
    <clipPath id="clip-path">
      <rect id="Rectangle_160" data-name="Rectangle 160" width="87.206" height="87.221" fill="#fe5b3d"/>
    </clipPath>
  </defs>
  <g id="Group_1449" data-name="Group 1449" clip-path="url(#clip-path)">
    <path id="Path_14146" data-name="Path 14146" d="M88.674,115.646c-5.04,0-10.081.068-15.119-.017A13.519,13.519,0,0,1,70.8,88.883a1.852,1.852,0,0,0,1.712-1.653,12.16,12.16,0,0,1,23.467-1.1,1.931,1.931,0,0,0,1.5,1.476,9.118,9.118,0,0,1,6.256,5.592,1.561,1.561,0,0,0,1.417,1.177,10.667,10.667,0,0,1-1.226,21.257c-5.084.088-10.17.018-15.255.018" transform="translate(-43.703 -56.497)" fill="#fe5b3d"/>
    <path id="Path_14147" data-name="Path 14147" d="M146.045,83.976l4.126-2.329c8.251,13.309,8.513,34.243-4.626,49.614-13.783,16.124-35.52,18.9-51.031,11.373.764-1.273,1.477-2.583,2.335-3.789.167-.235.958-.219,1.361-.062a38.938,38.938,0,0,0,14.354,2.7,38.434,38.434,0,0,0,37.259-29.753,37.973,37.973,0,0,0-3.179-26.2c-.182-.364-.365-.728-.537-1.1a2.307,2.307,0,0,1-.062-.456" transform="translate(-68.758 -59.397)" fill="#fe5b3d"/>
    <path id="Path_14148" data-name="Path 14148" d="M59,2.9,56.652,7.256C40.753,2.5,26.43,5.388,15.136,17.9S2.43,44.95,8.873,60.561L4.619,62.69c-6.5-11.671-7.071-30.705,4.387-45.6A43.38,43.38,0,0,1,59,2.9" transform="translate(0 0)" fill="#fe5b3d"/>
    <path id="Path_14149" data-name="Path 14149" d="M41.423,246.3a7.424,7.424,0,1,1-7.362,7.419,7.522,7.522,0,0,1,7.362-7.419" transform="translate(-24.779 -179.176)" fill="#fe5b3d"/>
    <path id="Path_14150" data-name="Path 14150" d="M224.768,20.376a7.381,7.381,0,1,1,7.37,7.463,7.339,7.339,0,0,1-7.37-7.463" transform="translate(-163.515 -9.482)" fill="#fe5b3d"/>
  </g>
</svg>
