<svg xmlns="http://www.w3.org/2000/svg" xmlns:xlink="http://www.w3.org/1999/xlink" width="136.371" height="144.167" viewBox="0 0 136.371 144.167">
  <defs>
    <clipPath id="clip-path">
      <rect id="Rectangle_389" data-name="Rectangle 389" width="74.001" height="74" fill="#262c47" stroke="#feb8ab" stroke-width="1.5"/>
    </clipPath>
  </defs>
  <g id="Group_1870" data-name="Group 1870" transform="translate(-1394.638 -3451.55)">
    <g id="Group_1842" data-name="Group 1842" transform="translate(0 -3)">
      <g id="Path_1307" data-name="Path 1307" transform="translate(1404.249 3472)" fill="#fff" opacity="0.57">
        <path d="M 55.32759094238281 106 C 48.74829864501953 106 42.27888488769531 105.2080001831055 36.09906768798828 103.6460189819336 C 29.75425338745117 102.0423278808594 24.01251411437988 99.69844818115234 19.0333309173584 96.67948150634766 C 13.78262233734131 93.49586486816406 9.550007820129395 89.65593719482422 6.453068733215332 85.26637268066406 C 3.131114959716797 80.55789184570312 1.165114998817444 75.2705078125 0.6096689105033875 69.55112457275391 C 0.2885611951351166 66.24469757080078 0.6602227091789246 63.42237091064453 1.745915055274963 60.92287826538086 C 2.710222721099854 58.70283508300781 4.224299430847168 56.78181838989258 6.374699592590332 55.050048828125 C 10.42168426513672 51.79092407226562 16.1634693145752 49.7184944152832 21.71620750427246 47.71429443359375 C 29.6823673248291 44.83899307250977 37.91906356811523 41.86627960205078 41.31755447387695 35.29354858398438 C 44.14552307128906 31.50436592102051 46.53768157958984 26.49448776245117 48.85146713256836 21.64886474609375 C 51.34439086914062 16.42807960510254 53.92217636108398 11.02955627441406 57.07562255859375 7.043187141418457 C 58.75505447387695 4.920140743255615 60.4539909362793 3.363710165023804 62.26951599121094 2.284910202026367 C 64.29080963134766 1.083848595619202 66.40888214111328 0.5000024437904358 68.74475860595703 0.5000024437904358 C 70.52774810791016 0.5000024437904358 72.45411682128906 0.8563409447669983 74.47035980224609 1.559094786643982 C 77.65394592285156 2.66858696937561 84.03114318847656 5.173156261444092 90.97251129150391 9.481525421142578 C 98.45814514160156 14.12771034240723 104.3586959838867 19.47321701049805 108.5102996826172 25.36957168579102 C 109.8733291625977 27.30529403686523 111.0857620239258 29.72624778747559 112.1139297485352 32.56517028808594 C 112.989128112793 34.98172378540039 113.7332534790039 37.70415496826172 114.3256225585938 40.65683364868164 C 115.3601150512695 45.81327819824219 115.7271728515625 50.64786529541016 115.7271728515625 53.22114181518555 C 115.7271728515625 60.33774185180664 114.1337738037109 67.24197387695312 110.9912414550781 73.74205017089844 C 109.4799575805664 76.86797332763672 107.6091461181641 79.88329315185547 105.4307479858398 82.70426177978516 C 103.2719268798828 85.49984741210938 100.7923431396484 88.12900543212891 98.06086730957031 90.51866149902344 C 95.32820892333984 92.90938568115234 92.32097625732422 95.08004760742188 89.12271881103516 96.97037506103516 C 85.89273071289062 98.87943267822266 82.43949890136719 100.5192184448242 78.85893249511719 101.8441543579102 C 71.40665435791016 104.6017684936523 63.48956298828125 106 55.32759094238281 106 Z" stroke="none"/>
        <path d="M 55.32759094238281 105.5 C 63.43014526367188 105.5 71.28885650634766 104.1122360229492 78.6854248046875 101.3752365112305 C 82.23799133300781 100.0606460571289 85.66402435302734 98.43381500244141 88.86831665039062 96.53992462158203 C 92.04006958007812 94.66526031494141 95.02213287353516 92.5128173828125 97.73165130615234 90.14235687255859 C 100.4387741088867 87.77398681640625 102.8959732055664 85.16863250732422 105.0350036621094 82.39866638183594 C 107.1923141479492 79.60500335693359 109.0448226928711 76.61927795410156 110.5410842895508 73.5244140625 C 113.6505432128906 67.09275817871094 115.2271728515625 60.26175689697266 115.2271728515625 53.22114181518555 C 115.2271728515625 50.67077255249023 114.8626708984375 45.87569427490234 113.8353881835938 40.75517272949219 C 112.5589447021484 34.39266586303711 110.5761947631836 29.17194175720215 108.1014709472656 25.65741729736328 C 103.9887771606445 19.81632614135742 98.13705444335938 14.51689434051514 90.70883941650391 9.906340599060059 C 83.80831146240234 5.623325347900391 77.46991729736328 3.133940935134888 74.30579376220703 2.031233310699463 C 72.34259033203125 1.346956253051758 70.47159576416016 1.000002503395081 68.74475860595703 1.000002503395081 C 66.50129699707031 1.000002503395081 64.46677398681641 1.560910105705261 62.52492904663086 2.71475625038147 C 60.76283645629883 3.761787176132202 59.10863876342773 5.279094696044922 57.4677619934082 7.353371620178223 C 54.34917831420898 11.29569435119629 51.78369903564453 16.66844940185547 49.30266952514648 21.86429405212402 C 46.98513793945312 26.71778869628906 44.5892333984375 31.73542022705078 41.74267578125 35.55984115600586 C 38.24313735961914 42.28081130981445 29.92819976806641 45.28183364868164 21.88596153259277 48.18458557128906 C 16.37191581726074 50.17483139038086 10.67013072967529 52.23281860351562 6.688314914703369 55.43947982788086 C 4.602468967437744 57.11924743652344 3.135807275772095 58.97805023193359 2.204514980316162 61.12207794189453 C 1.153530478477478 63.54169464111328 0.7946380972862244 66.28305053710938 1.107330441474915 69.50279998779297 C 1.654284238815308 75.13475799560547 3.590299606323242 80.34141540527344 6.86162281036377 84.97814178466797 C 9.918668746948242 89.31114196777344 14.10103797912598 93.10420227050781 19.29257583618164 96.25192260742188 C 24.22923851013184 99.24512481689453 29.92497634887695 101.5697555541992 36.22159194946289 103.161262512207 C 42.36139297485352 104.7131423950195 48.78957748413086 105.5 55.32759094238281 105.5 M 55.32759094238281 106.5 C 29.12677574157715 106.5 2.457638025283813 93.75223541259766 0.112007349729538 69.59946441650391 C -2.233623504638672 45.44667816162109 32.95280838012695 50.49784851074219 40.89213180541992 35.02755737304688 C 49.74193954467773 23.20297241210938 53.93290710449219 3.355994522280525e-06 68.74475860595703 3.355994522280525e-06 C 70.54327392578125 3.355994522280525e-06 72.49579620361328 0.3413585722446442 74.63493347167969 1.086956262588501 C 82.74497985839844 3.913325548171997 99.36685180664062 11.51498699188232 108.9191284179688 25.08171081542969 C 114.8996658325195 33.57512664794922 116.2271728515625 48.47986221313477 116.2271728515625 53.22114181518555 C 116.2271728515625 82.64623260498047 88.96150207519531 106.5 55.32759094238281 106.5 Z" stroke="none" fill="#fff"/>
      </g>
      <g id="Group_888" data-name="Group 888" transform="translate(1523.121 3525.693)">
        <g id="Group_887" data-name="Group 887">
          <path id="Path_1308" data-name="Path 1308" d="M93.987,308.863a3.9,3.9,0,0,1-1.856-.33.335.335,0,0,0-.318.59q.1.056.209.1a2.931,2.931,0,0,0-1.56,1.644,2.974,2.974,0,0,0-1.56-1.645,2.976,2.976,0,0,0,1.56-1.645c.064.158.123.268.125.273a.335.335,0,1,0,.6-.3,3.594,3.594,0,0,1-.359-1.731.365.365,0,0,0-.3-.4.369.369,0,0,0-.425.281,3.217,3.217,0,0,1-1.164,2.755,3.7,3.7,0,0,1-2.007.417.37.37,0,0,0,0,.721,3.682,3.682,0,0,1,2.024.428,3.129,3.129,0,0,1,1.139,2.669.369.369,0,0,0,.721.1c.044-.137-.141-1.885,1.113-2.744a3.48,3.48,0,0,1,2.029-.45A.369.369,0,0,0,93.987,308.863Z" transform="translate(-86.643 -305.405)" fill="#fff" stroke="#fff" stroke-width="0.5" opacity="0.56"/>
        </g>
      </g>
      <g id="Group_890" data-name="Group 890" transform="translate(1515.22 3478.563)" opacity="0.86">
        <g id="Group_889" data-name="Group 889">
          <path id="Path_1309" data-name="Path 1309" d="M148.18,63.484c-.54-.06-4.387.481-6.069-3.05a8.377,8.377,0,0,1-.705-3.752.365.365,0,0,0-.72.066v.766c-.133,2.634-1.332,4.876-3.849,5.665a9.672,9.672,0,0,1-2.951.311.366.366,0,0,0,0,.714c.329.07,2.807-.332,4.732,1.266a.3.3,0,0,0,.377-.454,5.893,5.893,0,0,0-2.357-1.168,5.887,5.887,0,0,0,4.408-4.686,5.867,5.867,0,0,0,4.416,4.684,5.876,5.876,0,0,0-4.42,4.675,6.965,6.965,0,0,0-1.061-2.434.3.3,0,1,0-.482.34,5.688,5.688,0,0,1,.485.831,8.272,8.272,0,0,1,.7,3.707.365.365,0,1,0,.725-.082c-.04-.979.035-4.3,2.714-5.869a7.844,7.844,0,0,1,4.087-.811A.365.365,0,0,0,148.18,63.484Z" transform="translate(-133.602 -56.398)" fill="#fff" stroke="#fff" stroke-width="1"/>
        </g>
      </g>
      <g id="Group_892" data-name="Group 892" transform="translate(1402.249 3482.638)" opacity="0.73">
        <g id="Group_891" data-name="Group 891" transform="translate(0)">
          <path id="Path_1310" data-name="Path 1310" d="M7.344,39.136a2.808,2.808,0,0,1-2.816-1.343,3.786,3.786,0,0,1-.345-1.7.364.364,0,0,0-.3-.4.369.369,0,0,0-.425.281A3.217,3.217,0,0,1,2.294,38.72a3.509,3.509,0,0,1-1.97.411.37.37,0,0,0-.037.727,3.672,3.672,0,0,1,2.024.428,2.873,2.873,0,0,1,1.139,2.3,1.933,1.933,0,0,0,.016.471.369.369,0,0,0,.716-.044,4.1,4.1,0,0,1,.356-1.83.335.335,0,0,0-.6-.3q-.064.126-.118.262A2.974,2.974,0,0,0,2.26,39.5a2.976,2.976,0,0,0,1.56-1.645A2.943,2.943,0,0,0,5.379,39.5q-.11.048-.219.107a.335.335,0,0,0,.319.59,3.728,3.728,0,0,1,1.834-.332A.37.37,0,0,0,7.344,39.136Z" transform="translate(0 -35.678)" fill="#fff" stroke="#fff" stroke-width="1"/>
        </g>
      </g>
      <path id="Path_1311" data-name="Path 1311" d="M11.389,25.617l.805,2.183a.209.209,0,0,0,.392,0l.805-2.183A6.438,6.438,0,0,1,17.2,21.8L19.388,21a.209.209,0,0,0,0-.392L17.2,19.8a6.438,6.438,0,0,1-3.813-3.813l-.805-2.183a.209.209,0,0,0-.392,0l-.805,2.183A6.438,6.438,0,0,1,7.576,19.8l-2.184.805a.209.209,0,0,0,0,.392l2.183.805A6.437,6.437,0,0,1,11.389,25.617Z" transform="translate(1487.04 3570.279)" fill="#fff" stroke="#fff" stroke-width="1" opacity="0.62"/>
      <path id="Path_1312" data-name="Path 1312" d="M92.1,133.247l-1.234-.455a3.639,3.639,0,0,1-2.156-2.156l-.455-1.234a.118.118,0,0,0-.222,0l-.455,1.234a3.64,3.64,0,0,1-2.156,2.156l-1.234.455a.118.118,0,0,0,0,.222l1.234.455a3.64,3.64,0,0,1,2.156,2.156l.455,1.234a.118.118,0,0,0,.222,0l.455-1.234a3.64,3.64,0,0,1,2.156-2.156l1.235-.455a.118.118,0,0,0,0-.222Z" transform="translate(1311.887 3417.856)" fill="#fff" stroke="#fff" stroke-width="1" opacity="0.56"/>
      <path id="Path_1313" data-name="Path 1313" d="M222.338,76.21l-1.484-.547a4.376,4.376,0,0,1-2.591-2.591l-.547-1.484a.142.142,0,0,0-.267,0l-.547,1.484a4.375,4.375,0,0,1-2.591,2.591l-1.484.547a.142.142,0,0,0,0,.266l1.484.547a4.376,4.376,0,0,1,2.591,2.591l.547,1.484a.142.142,0,0,0,.267,0l.547-1.484a4.375,4.375,0,0,1,2.591-2.591l1.484-.547a.142.142,0,0,0,0-.266Z" transform="translate(1303.094 3487.57)" fill="#fff" stroke="#fff" stroke-width="1" opacity="0.29"/>
      <path id="Path_1314" data-name="Path 1314" d="M213.827,245.116l-1.035-.382a3.052,3.052,0,0,1-1.807-1.807l-.382-1.035a.1.1,0,0,0-.186,0l-.382,1.035a3.051,3.051,0,0,1-1.807,1.807l-1.035.382a.1.1,0,0,0,0,.186l1.035.382a3.052,3.052,0,0,1,1.808,1.808l.382,1.035a.1.1,0,0,0,.186,0l.382-1.035a3.052,3.052,0,0,1,1.808-1.808l1.035-.382a.1.1,0,0,0,0-.186Z" transform="translate(1188.01 3266.199)" fill="#fff" stroke="#fff" stroke-width="1" opacity="0.75"/>
      <path id="Path_1315" data-name="Path 1315" d="M151.793,3.289l-1.035-.382A3.051,3.051,0,0,1,148.951,1.1L148.569.065a.1.1,0,0,0-.186,0L148,1.1a3.052,3.052,0,0,1-1.808,1.808l-1.035.382a.1.1,0,0,0,0,.186l1.035.382A3.052,3.052,0,0,1,148,5.664l.382,1.035a.1.1,0,0,0,.186,0l.382-1.035a3.051,3.051,0,0,1,1.808-1.807l1.035-.382a.1.1,0,0,0,0-.186Z" transform="translate(1267.411 3584.267)" fill="#fff" stroke="#fff" stroke-width="1" opacity="0.29"/>
      <path id="Path_1316" data-name="Path 1316" d="M36.312,221.78l-1.3-.48a3.84,3.84,0,0,1-2.274-2.274l-.48-1.3a.125.125,0,0,0-.234,0l-.48,1.3a3.839,3.839,0,0,1-2.274,2.274l-1.3.48a.125.125,0,0,0,0,.234l1.3.48a3.839,3.839,0,0,1,2.274,2.274l.48,1.3a.125.125,0,0,0,.234,0l.48-1.3a3.839,3.839,0,0,1,2.273-2.273l1.3-.48a.125.125,0,0,0,0-.234Z" transform="translate(1456.196 3237.407)" fill="#fff" stroke="#fff" stroke-width="1" opacity="0.48"/>
    </g>
    <g id="Group_1847" data-name="Group 1847" transform="translate(1427 3498)">
      <g id="Group_1846" data-name="Group 1846" clip-path="url(#clip-path)">
        <path id="Path_14648" data-name="Path 14648" d="M37.068,0Q51.2,0,65.33,0C70.718.006,74,3.255,74,8.607Q74,37,74,65.4c0,5.35-3.281,8.6-8.669,8.6Q37,74,8.671,74C3.285,74,0,70.742,0,65.393Q0,37,0,8.6C0,3.256,3.284.006,8.673,0Q22.87,0,37.068,0M5.357,26.478c-.022.466-.062.926-.062,1.387q-.005,18.751,0,37.5c0,2.416.928,3.338,3.358,3.339q28.325,0,56.65,0c2.516,0,3.4-.894,3.4-3.427q0-18.685,0-37.37V26.478ZM5.3,21.044H68.581a1.625,1.625,0,0,0,.1-.343q.015-5.941.022-11.882c0-2.678-.857-3.524-3.568-3.524H8.892c-.352,0-.706-.016-1.056.011A2.565,2.565,0,0,0,5.316,7.86C5.273,12.214,5.3,16.568,5.3,21.044" transform="translate(0 -0.001)" fill="#262c47" stroke="#feb8ab" stroke-width="1.5"/>
        <path id="Path_14649" data-name="Path 14649" d="M88.49,156.424c-4.269,0-8.538.01-12.807,0a5.294,5.294,0,0,1-5.691-5.687q-.02-7.526,0-15.051A5.287,5.287,0,0,1,75.682,130q12.807-.017,25.613,0a5.287,5.287,0,0,1,5.691,5.685q.021,7.526,0,15.051a5.294,5.294,0,0,1-5.69,5.688c-4.269.013-8.538,0-12.807,0m13.164-17.663c-.606.465-.985.746-1.353,1.04q-4.845,3.868-9.688,7.738c-1.646,1.309-2.594,1.31-4.231.006q-4.9-3.9-9.789-7.823c-.353-.281-.736-.524-1.227-.87v12.179h26.289Zm-21.833-3.434a4.934,4.934,0,0,0,.466.555c2.5,2.01,5.019,4,7.5,6.032a1,1,0,0,0,1.491-.067c2.423-1.967,4.867-3.908,7.3-5.868a4.666,4.666,0,0,0,.531-.652Z" transform="translate(-51.489 -95.639)" fill="#262c47" stroke="#feb8ab" stroke-width="1.5"/>
        <path id="Path_14650" data-name="Path 14650" d="M44.1,45.212a15.689,15.689,0,0,1-1.709-.01,2.646,2.646,0,0,1-2.352-2.58,2.61,2.61,0,0,1,2.407-2.653,23.974,23.974,0,0,1,2.894-.014,2.636,2.636,0,1,1-.055,5.271c-.394.021-.79,0-1.184,0v-.016" transform="translate(-29.458 -29.369)" fill="#262c47" stroke="#feb8ab" stroke-width="1.5"/>
        <path id="Path_14651" data-name="Path 14651" d="M93.927,45.228c-.483,0-.969.038-1.447-.007a2.655,2.655,0,0,1-2.441-2.632,2.613,2.613,0,0,1,2.448-2.616,25.966,25.966,0,0,1,2.763-.015,2.639,2.639,0,1,1-.006,5.276c-.438.02-.877,0-1.316,0v-.01" transform="translate(-66.246 -29.378)" fill="#262c47" stroke="#feb8ab" stroke-width="1.5"/>
      </g>
    </g>
  </g>
</svg>
