<svg id="Group_1448" data-name="Group 1448" xmlns="http://www.w3.org/2000/svg" xmlns:xlink="http://www.w3.org/1999/xlink" width="81.482" height="81.463" viewBox="0 0 81.482 81.463">
  <defs>
    <clipPath id="clip-path">
      <rect id="Rectangle_159" data-name="Rectangle 159" width="81.482" height="81.463" fill="#fe5b3d"/>
    </clipPath>
  </defs>
  <g id="Group_1447" data-name="Group 1447" clip-path="url(#clip-path)">
    <path id="Path_14145" data-name="Path 14145" d="M40.62,81.463A40.732,40.732,0,1,1,81.482,40.98,40.794,40.794,0,0,1,40.62,81.463M43.143,7c-.585-.071-.876-.124-1.168-.138-.635-.03-1.272-.072-1.907-.053A33.99,33.99,0,0,0,7.025,37.375a1.977,1.977,0,0,0,.429,1.55,13.578,13.578,0,0,1,4.059,4.987c.976,1.956,2.241,3.378,4.638,3.293a4.791,4.791,0,0,1,1,.169c2.545.469,3.785,2.386,3.021,4.877a9.826,9.826,0,0,1-1.44,2.947,8.574,8.574,0,0,0-1.787,5.945c.066.929-.076,1.877.044,2.8a2.9,2.9,0,0,0,.732,1.624,30.856,30.856,0,0,0,10.562,6.71c10.749,4.042,21.2,3.283,30.776-3.093C70.752,61.4,75.842,50.246,74.353,36.213c-.152-1.435-.554-2.844-.812-4.126a31.627,31.627,0,0,1-4.5,2.09c-1.8.519-2.707-1.434-4.464-2.156a8.877,8.877,0,0,0,.8,1.555c1.477,1.739,2.908,3.533,4.526,5.134,1.719,1.7,1.826,2.08.271,3.991a25.648,25.648,0,0,0-2.22,2.941,12.574,12.574,0,0,0-1.679,3.644,5.512,5.512,0,0,1-1.757,3.4,4.4,4.4,0,0,0-1.757,3.5,6.112,6.112,0,0,1-2.3,4.512,16.4,16.4,0,0,1-7.33,3.629,2.294,2.294,0,0,1-1.964-.721,35.6,35.6,0,0,1-3.267-5.687,5.215,5.215,0,0,1,.589-5.226,3.524,3.524,0,0,0,.345-3.6,25.69,25.69,0,0,1-1.119-3.369c-.453-2.029-.38-2.162-2.4-2.445-3.019-.422-6.061-.68-9.1-.959C32.6,42,30.685,40.053,30.523,36.471c-.027-.593-.1-1.183-.142-1.776-.229-3.279.727-6.119,3.525-7.974A16.052,16.052,0,0,1,49.037,24.83a7.25,7.25,0,0,0,2.2.562c2.416.075,4.839.109,7.253,0,.98-.043,2.359.054,2.559-1.345s-1.066-1.9-2.075-2.206c-5.374-1.645-10.736-2.472-16.06.336A15.413,15.413,0,0,1,38.6,23.606c-2.215.414-3.663-.8-3.574-3.071a8.282,8.282,0,0,1,1.1-3.568,12.593,12.593,0,0,1,4.891-4.533,15.986,15.986,0,0,0,2.052-1.265,1.126,1.126,0,0,0,.2-1.071A2.081,2.081,0,0,1,43.143,7" transform="translate(0 -0.001)" fill="#fe5b3d"/>
  </g>
</svg>
