<svg id="Group_1445" data-name="Group 1445" xmlns="http://www.w3.org/2000/svg" xmlns:xlink="http://www.w3.org/1999/xlink" width="72.766" height="82.986" viewBox="0 0 72.766 82.986">
  <defs>
    <clipPath id="clip-path">
      <rect id="Rectangle_158" data-name="Rectangle 158" width="72.766" height="82.986" fill="#fe5b3d"/>
    </clipPath>
  </defs>
  <g id="Group_1444" data-name="Group 1444" clip-path="url(#clip-path)">
    <path id="Path_14144" data-name="Path 14144" d="M0,58.66V53.817c1.264,0,2.46-.033,3.653.012.81.03,1.152-.213,1.15-1.093Q4.77,34.2,4.8,15.669c0-.855-.291-1.143-1.13-1.1-1.195.055-2.394.014-3.667.014V9.763H29.44C28.734,6.648,29.229,4,31.517,1.912A7.218,7.218,0,0,1,37.12.024c4.358.319,6.834,4.013,6.319,9.666H72.766v4.888c-1.211,0-2.371.057-3.522-.018-.977-.064-1.26.289-1.252,1.251.04,5.184.018,10.368.018,15.552,0,7,.023,14-.023,21-.007,1.11.253,1.583,1.433,1.478,1.065-.1,2.146-.02,3.334-.02V58.66H71.216c-10.325,0-20.65.02-30.975-.027-1.171-.005-1.47.348-1.436,1.467.077,2.5.055,5.011.007,7.516a1.648,1.648,0,0,0,1.008,1.708,7.167,7.167,0,0,1,3.625,8.227,7.282,7.282,0,0,1-14.095-.018,7.086,7.086,0,0,1,3.428-8.079,2.012,2.012,0,0,0,1.214-2.111c-.065-2.418-.078-4.84,0-7.256.039-1.141-.3-1.458-1.45-1.453-10.325.045-20.65.026-30.975.026ZM36.427,45.268l16.843-17c.139,1.212-.116,2.741.491,3.26.666.569,2.131.174,3.243.262.928.073,1.305-.212,1.288-1.219-.057-3.238-.052-6.479,0-9.718.015-1-.377-1.252-1.3-1.234-2.418.046-4.837.015-7.256.015-3.788,0-3.77,0-3.622,3.792.03.76.242,1.112,1.046,1.063s1.6-.011,2.269-.011L35.958,38.047l-7.064-7.309c-.524.614-.966,1.206-1.482,1.725q-6.856,6.885-13.729,13.753c-.354.356-1.027.662-.382,1.352.909.972,1.787,1.972,2.867,3.17L28.968,37.6l7.459,7.673m2.363-38a2.392,2.392,0,0,0-4.783.005,2.392,2.392,0,1,0,4.783-.005m-2.345,66.02a2.408,2.408,0,1,0,2.346,2.425,2.412,2.412,0,0,0-2.346-2.425" transform="translate(0 0)" fill="#fe5b3d"/>
  </g>
</svg>
