<svg id="location_1_" data-name="location (1)" xmlns="http://www.w3.org/2000/svg" width="37.773" height="44.654" viewBox="0 0 37.773 44.654">
  <g id="Group_855" data-name="Group 855" transform="translate(0)">
    <g id="Group_854" data-name="Group 854">
      <path id="Path_1273" data-name="Path 1273" d="M71.692,5.532A18.886,18.886,0,0,0,39.451,18.886c0,10.205,9.649,18.693,14.833,23.254.72.634,1.343,1.181,1.838,1.644a3.254,3.254,0,0,0,4.43,0c.5-.463,1.118-1.01,1.838-1.644,5.184-4.56,14.833-13.048,14.833-23.254A18.763,18.763,0,0,0,71.692,5.532ZM60.663,40.176c-.736.648-1.372,1.207-1.9,1.7a.631.631,0,0,1-.859,0c-.524-.49-1.16-1.049-1.9-1.7-4.874-4.287-13.945-12.267-13.945-21.29a16.271,16.271,0,0,1,32.541,0C74.608,27.909,65.536,35.889,60.663,40.176Z" transform="translate(-39.451)" fill="#fff"/>
    </g>
  </g>
  <g id="Group_857" data-name="Group 857" transform="translate(10.563 9.85)">
    <g id="Group_856" data-name="Group 856">
      <path id="Path_1274" data-name="Path 1274" d="M168.893,112.938a8.323,8.323,0,1,0,8.323,8.323A8.332,8.332,0,0,0,168.893,112.938Zm0,14.03a5.707,5.707,0,1,1,5.707-5.707A5.714,5.714,0,0,1,168.893,126.968Z" transform="translate(-160.57 -112.938)" fill="#fff"/>
    </g>
  </g>
</svg>
