<svg xmlns="http://www.w3.org/2000/svg" width="16.424" height="15.888" viewBox="0 0 16.424 15.888">
  <g id="Group_447" data-name="Group 447" transform="translate(-639.503 -728.388)">
    <path id="Path_13953" data-name="Path 13953" d="M1.523,59.6V70.166H12.1v-.322c0-2.122,0-2.635,0-4.757a.755.755,0,0,1,.719-.849.726.726,0,0,1,.759.574,1.654,1.654,0,0,1,.036.36c0,2.4,0,3.189,0,5.588a1.763,1.763,0,0,1-.009.233.749.749,0,0,1-.792.7q-6,0-12.005,0a.755.755,0,0,1-.8-.817Q0,64.886,0,58.9a.761.761,0,0,1,.762-.813c.078-.006.156,0,.234,0,2.365,0,3.656,0,6.021,0a1.869,1.869,0,0,1,.386.033.725.725,0,0,1,.586.774.74.74,0,0,1-.679.7c-.1.01-.208.007-.312.007H1.523" transform="translate(639.503 672.582)" fill="#f1f2f3"/>
    <path id="Path_13954" data-name="Path 13954" d="M124.571,1.557h-.281c-1.312,0-2.625,0-3.937,0a.764.764,0,0,1-.823-.788A.754.754,0,0,1,120.27,0q3.147-.01,6.294,0a.753.753,0,0,1,.746.76q.008,3.134,0,6.268a.774.774,0,0,1-1.548,0c-.008-1.33,0-2.661,0-3.991,0-.1,0-.192,0-.36-.119.112-.2.179-.267.25q-3.817,3.816-7.632,7.632a.855.855,0,0,1-.851.328.771.771,0,0,1-.442-1.226,2.42,2.42,0,0,1,.237-.254q3.8-3.8,7.6-7.592a1.006,1.006,0,0,1,.26-.137l-.089-.122" transform="translate(528.613 728.388)" fill="#f1f2f3"/>
  </g>
</svg>
