<svg xmlns="http://www.w3.org/2000/svg" width="41.272" height="41.272" viewBox="0 0 41.272 41.272">
  <g id="phone" transform="translate(0.708) rotate(1)">
    <path id="Path_1276" data-name="Path 1276" d="M29.158,40.571a11.3,11.3,0,0,1-3.878-.693,41.352,41.352,0,0,1-15.016-9.571A41.349,41.349,0,0,1,.693,15.291,11.222,11.222,0,0,1,.121,9.775,11.507,11.507,0,0,1,6.035,1.351,11.3,11.3,0,0,1,11.444,0a1.268,1.268,0,0,1,1.24,1l1.99,9.286a1.268,1.268,0,0,1-.343,1.162l-3.4,3.4a33.372,33.372,0,0,0,14.79,14.79l3.4-3.4a1.269,1.269,0,0,1,1.162-.343l9.286,1.99a1.268,1.268,0,0,1,1,1.24,11.3,11.3,0,0,1-1.351,5.409A11.507,11.507,0,0,1,30.8,40.45a11.277,11.277,0,0,1-1.638.12ZM10.431,2.591A8.884,8.884,0,0,0,3.076,14.425a38.454,38.454,0,0,0,23.07,23.07A8.884,8.884,0,0,0,37.98,30.14l-7.554-1.619-3.551,3.551a1.268,1.268,0,0,1-1.436.251A35.9,35.9,0,0,1,8.248,15.132,1.268,1.268,0,0,1,8.5,13.7l3.551-3.551Z" transform="translate(0 0)" fill="#fff"/>
  </g>
</svg>
